<?xml version="1.0" standalone="no"?><!DOCTYPE svg PUBLIC "-//W3C//DTD SVG 1.1//EN" "http://www.w3.org/Graphics/SVG/1.1/DTD/svg11.dtd"><svg t="1521624339792" class="icon" style="" viewBox="0 0 1024 1024" version="1.1" xmlns="http://www.w3.org/2000/svg" p-id="3882" xmlns:xlink="http://www.w3.org/1999/xlink" width="64" height="64"><defs><style type="text/css"></style></defs><path d="M895.99232 128.01792l0 831.98336-671.9968 0c-53.02166 0-96.00832-42.98666-96.00832-96.00832s42.966181-96.00832 96.00832-96.00832l607.99808 0 0-767.98464-639.9872 0c-70.388352 0-127.99744 57.609088-127.99744 127.99744l0 767.98464c0 70.408832 57.609088 127.99744 127.99744 127.99744l767.98464 0 0-895.98208-63.99872 0z" p-id="3883"></path><path d="M224.056959 832.00384l0 0c-0.02048 0-0.040959 0-0.061439 0-17.673887 0-32.0096 14.335713-32.0096 32.0096s14.335713 32.0096 32.0096 32.0096c0.02048 0 0.040959 0 0.061439 0l0 0 607.875202 0 0-63.99872-607.875202 0z" p-id="3884"></path></svg>