<?xml version="1.0" standalone="no"?><!DOCTYPE svg PUBLIC "-//W3C//DTD SVG 1.1//EN" "http://www.w3.org/Graphics/SVG/1.1/DTD/svg11.dtd"><svg t="1523179832107" class="icon" style="" viewBox="0 0 1024 1024" version="1.1" xmlns="http://www.w3.org/2000/svg" p-id="2266" xmlns:xlink="http://www.w3.org/1999/xlink" width="64" height="64"><defs><style type="text/css"></style></defs><path d="M280.574058 203.329885c3.536617 6.417926 4.034242 14.805872 5.181031 24.019098 7.900561-15.133527 18.258528-29.611745 30.512794-42.777299 12.995583-13.728709 26.732484-24.340608 40.385423-31.583813-17.762951 0.741318-36.762797 5.103214-55.351027 13.409247-13.652939 6.090272-25.991166 13.820862-36.351181 22.454549C272.681688 192.961679 277.121402 196.91196 280.574058 203.329885z" p-id="2267"></path><path d="M770.210197 70.414927c5.422676 9.870582 8.387947 21.797193 8.885571 36.26722 11.345025-21.62927 26.066936-42.515175 43.840127-61.273376 18.504269-19.657202 38.245432-34.792776 57.818672-45.320714-25.493542 1.152933-52.72365 7.402936-79.372173 19.329548-19.657202 8.717649-37.17646 19.741163-52.226025 32.15516C757.626229 55.852747 765.60256 61.943019 770.210197 70.414927z" p-id="2268"></path><path d="M725.712714 98.949509c-33.066448-49.920159-134.479507-59.70678-221.911972-2.957079-87.516426 56.665739-148.048485 108.320418-94.995133 208.504773 28.131158 52.969391 147.634822 65.139695 235.153296 8.389994C731.46714 256.053536 776.214459 175.282689 725.712714 98.949509z" p-id="2269"></path><path d="M256.233449 221.344721c-23.775405-36.031719-96.813613-43.104953-159.897279-2.223953-62.923934 40.872809-106.59409 78.059508-68.348658 150.188476 20.230597 38.161471 106.348349 46.879119 169.348053 6.004263C260.427422 334.432507 292.58463 276.282084 256.233449 221.344721z" p-id="2270"></path><path d="M953.547035 253.745622c8.387947 4.607637 14.553988 12.583968 18.831923 20.980106 12.497958-14.975843 23.43956-32.493054 32.157208-52.066294 11.926611-26.732484 18.260576-53.954401 19.413509-79.372173-10.611899 19.49747-25.747474 39.316452-45.404675 57.742902-18.747962 17.762951-39.644106 32.400901-61.273376 43.913849C931.665881 245.355627 943.676453 248.404859 953.547035 253.745622z" p-id="2271"></path><path d="M820.625933 743.463674c6.333965 3.452656 10.368206 7.8166 14.478218 15.54719 8.717649-10.368206 16.364278-22.622472 22.454549-36.275411 8.387947-18.672192 12.75189-37.674085 13.493208-55.437036-7.327166 13.652939-17.930874 27.473801-31.667775 40.301462-12.995583 12.422188-27.633533 22.698242-42.693337 30.598803C805.742243 739.353663 814.216199 739.927057 820.625933 743.463674z" p-id="2272"></path><path d="M804.833003 927.619648c40.883048-62.999704 33.807766-136.037912-2.139991-159.815365-55.023373-36.351181-113.085738-4.269743-153.968786 58.897883-40.958818 62.915742-32.241169 149.033495 5.920301 169.264092C726.699772 1034.213738 764.044155 990.543582 804.833003 927.619648z" p-id="2273"></path><path d="M927.961341 520.153029c56.833662-87.432465 46.971272-188.845524-2.957079-221.911972-76.331133-50.499698-157.101979-5.752378-213.767718 81.839818-56.749701 87.348504-44.747319 207.022138 8.228215 235.153296C819.554914 668.285475 871.209592 607.669455 927.961341 520.153029z" p-id="2274"></path><path d="M535.300594 846.605109c-19.489279-48.77337-3.04104-98.044364-1.810289-139.003182 1.98026-70.40264 43.762309-81.923779-19.077664-152.32642-4.034242-4.607637-41.210702-41.700136-45.648368-45.734377-70.486601-62.839972-81.99955-21.055876-152.410381-18.993702-40.872809 1.14679-90.227765 17.595028-139.003182-1.978212-57.163364-22.782203-175.270402 19.085855-177.080691 81.99955-6.829541 224.709319 135.136863 165.651705 182.841261 217.060643 3.95028 4.437666 48.857331 49.187033 53.297045 53.297045 51.410986 47.544667-7.646629 189.586841 217.060643 182.841261C516.2987 1021.873463 558.25072 903.682464 535.300594 846.605109z" p-id="2275"></path></svg>