<?xml version="1.0" standalone="no"?><!DOCTYPE svg PUBLIC "-//W3C//DTD SVG 1.1//EN" "http://www.w3.org/Graphics/SVG/1.1/DTD/svg11.dtd"><svg t="1521794623884" class="icon" style="" viewBox="0 0 1629 1024" version="1.1" xmlns="http://www.w3.org/2000/svg" p-id="1907" xmlns:xlink="http://www.w3.org/1999/xlink" width="101.8125" height="64"><defs><style type="text/css"></style></defs><path d="M814.468224 1023.615303c-162.278129 0-322.889237-43.791372-464.586062-126.629516-142.46622-83.607539-259.670653-202.927807-338.918289-345.265794-14.618496-25.582368-14.618496-56.742846 0.128232-82.838144 79.375869-142.530336 196.516186-262.042953 338.725941-345.522259 278.649051-164.45808 650.523073-164.586313 929.364473 0.064116 140.735082 82.06875 257.875399 201.51725 338.469476 345.201678 14.682612 25.261787 14.810845 56.101684 0.51293 82.581679-80.722309 144.005009-197.926742 263.389393-339.23887 345.84284C1137.293344 979.823931 976.682237 1023.615303 814.468224 1023.615303zM98.033686 510.429153c71.104878 125.154843 174.844906 229.856615 300.512679 303.590257 253.707845 148.236679 578.071755 148.300795 831.907833-0.064116 124.770146-72.707783 228.446058-177.601903 300.384447-303.526141-72.066621-126.373051-175.80665-231.395404-300.320331-304.039071C980.84979 58.986914 647.70196 59.115146 398.610481 206.26185 272.878592 280.059608 169.138564 385.146077 98.033686 510.429153zM814.468224 883.329034c-100.149521 0-194.015653-38.854424-264.222904-109.510488-70.271367-70.399599-108.933442-164.009267-108.933442-263.645858 0-206.005385 167.407426-373.541043 373.156346-373.541043 206.005385 0 373.541043 167.535658 373.541043 373.541043 0 100.149521-39.110888 193.887421-110.215766 263.902323C1010.663828 843.256402 914.425396 883.329034 814.468224 883.329034zM814.468224 232.805961c-152.724814 0-276.98203 124.385449-276.98203 277.366727 0 73.990107 28.724062 143.492079 80.850542 195.682675 0.064116 0.064116 0.064116 0.064116 0.128232 0.128232 51.998247 52.318828 121.564335 81.235239 196.067372 81.235239 75.208315 0 144.517939-28.659946 195.105629-80.850542 53.344687-52.511177 82.261098-121.949033 82.261098-196.195605C1091.834951 357.191409 967.385386 232.805961 814.468224 232.805961z" p-id="1908"></path></svg>